<svg width="400" height="400" viewBox="0 0 400 400" fill="none" xmlns="http://www.w3.org/2000/svg">
<circle cx="200" cy="200" r="200" fill="#638475"/>
<path d="M206.567 61.8885C180.704 72.3693 157.508 84.7 137.65 104.821C131.411 111.142 110.607 132.986 117.434 144.782C121.058 151.045 133.815 151.92 138.596 152.231C154.111 153.239 181.237 151.232 195.694 151.246C232.219 151.282 283.881 150.751 300.5 191.963C315.802 229.907 295.298 276.201 265.703 300.79C239.228 322.786 201.319 328.865 169.992 314.184C146.959 303.39 130.487 281.557 129.663 255.891C129.052 236.88 137.527 222.829 144.668 206.274" stroke="white" stroke-width="35" stroke-linecap="round"/>
</svg>
