<svg width="400" height="400" viewBox="0 0 400 400" fill="none" xmlns="http://www.w3.org/2000/svg">
<circle cx="200" cy="200" r="200" fill="#638475"/>
<path d="M282.672 46.9562C247.558 44.6433 214.455 45.895 180.861 57.8227C170.306 61.5702 134.691 74.9336 135.959 92.074C136.632 101.174 150.631 109.176 155.886 112.155C172.943 121.824 204.835 134.449 221.237 142.408C262.675 162.515 321.605 190.296 317.827 246.205C314.348 297.68 265.64 338.96 218.539 350.61C176.405 361.032 130.036 347.104 102.544 313.229C82.3309 288.323 75.6297 254.491 88.7955 224.906C98.5474 202.993 115.887 191.7 133.088 176.833" stroke="white" stroke-width="17" stroke-linecap="round"/>
</svg>
